<?xml version="1.0" standalone="no"?>
<!DOCTYPE svg PUBLIC "-//W3C//DTD SVG 20010904//EN"
 "http://www.w3.org/TR/2001/REC-SVG-20010904/DTD/svg10.dtd">
<svg version="1.0" xmlns="http://www.w3.org/2000/svg"
 width="900.000000pt" height="900.000000pt" viewBox="0 0 900.000000 900.000000"
 preserveAspectRatio="xMidYMid meet">
<metadata>
Created by potrace 1.10, written by Peter Selinger 2001-2011
</metadata>
<g transform="translate(0.000000,900.000000) scale(0.100000,-0.100000)"
fill="#000000" stroke="none">
<path d="M3555 7930 c-55 -4 -300 -11 -545 -14 -245 -4 -535 -12 -645 -17
-110 -6 -252 -11 -315 -10 -63 0 -185 -4 -270 -10 -338 -22 -409 -46 -544
-184 -121 -125 -156 -257 -176 -680 -50 -1007 -53 -1169 -47 -2445 4 -688 10
-1241 17 -1319 15 -194 52 -291 154 -398 22 -24 44 -43 48 -43 4 0 31 -18 60
-40 104 -78 47 -74 1033 -80 l880 -5 -3 -44 c-1 -24 -9 -56 -16 -70 -7 -14
-24 -46 -37 -71 -12 -25 -48 -83 -79 -130 -31 -47 -81 -125 -110 -173 -30 -49
-64 -99 -76 -113 l-23 -24 -638 0 c-703 0 -688 1 -768 -63 -53 -42 -90 -85
-148 -171 -67 -98 -75 -109 -136 -185 -30 -36 -66 -84 -80 -106 -14 -22 -52
-75 -83 -117 -32 -43 -58 -81 -58 -84 0 -3 -12 -23 -27 -43 -41 -54 -53 -78
-69 -140 -20 -73 -20 -116 -1 -171 25 -74 48 -112 94 -157 47 -48 101 -75 184
-92 41 -9 879 -11 3389 -9 l3335 3 59 25 c72 31 132 88 174 168 29 54 32 68
32 146 0 94 -14 140 -64 216 -34 52 -233 325 -304 417 -26 34 -71 95 -99 135
-63 87 -105 134 -155 171 -77 57 -75 57 -788 57 -360 0 -660 4 -666 8 -9 6
-75 105 -151 227 -139 221 -208 370 -180 387 7 4 395 8 862 8 780 1 854 2 900
18 153 53 278 168 344 315 41 90 49 160 57 467 11 412 6 2207 -6 2590 -6 184
-13 400 -15 480 -3 80 -9 190 -15 245 -6 55 -10 118 -8 140 4 49 -9 259 -23
380 -20 171 -80 305 -171 388 -81 74 -111 95 -144 103 -16 3 -38 12 -49 19
-43 26 -249 45 -565 51 -118 2 -222 6 -230 10 -61 23 -2831 54 -3095 34z
m2390 -189 c121 -6 373 -16 560 -22 843 -27 856 -28 940 -81 56 -35 111 -100
139 -161 42 -93 62 -406 97 -1487 14 -451 7 -2556 -10 -2739 -9 -102 -16 -133
-38 -173 -35 -64 -108 -129 -190 -170 l-65 -32 -2943 -3 -2944 -2 -70 35 c-80
40 -121 83 -169 177 l-33 66 -11 288 c-26 680 -10 3021 23 3393 5 58 14 184
19 280 11 204 26 309 48 359 34 73 96 143 162 180 53 30 141 41 415 50 154 6
323 13 375 16 52 3 266 11 475 17 209 6 457 14 550 18 259 11 2417 4 2670 -9z
m-1464 -5001 c801 0 727 9 755 -88 9 -31 25 -73 35 -92 11 -19 19 -42 19 -50
0 -26 17 -42 46 -46 16 -2 49 -10 72 -18 29 -11 50 -13 61 -6 28 14 82 9 89
-9 3 -9 9 -18 12 -21 4 -3 28 -36 53 -75 25 -38 54 -79 64 -90 29 -31 97 -145
90 -151 -3 -3 -66 -5 -139 -5 -73 1 -148 -3 -167 -9 -22 -6 -446 -10 -1185
-10 -633 0 -1157 0 -1163 0 -21 0 -15 27 16 72 16 24 55 88 87 143 31 55 70
119 85 143 15 23 46 85 68 136 23 52 53 115 68 141 l26 48 150 -7 c83 -3 469
-6 858 -6z m2827 -846 c65 -21 108 -57 182 -152 33 -43 78 -99 100 -127 22
-27 61 -81 87 -120 26 -38 67 -97 93 -130 109 -140 124 -162 141 -200 24 -53
24 -126 0 -174 -23 -45 -33 -53 -91 -74 -42 -16 -285 -17 -3333 -17 -3650 0
-3348 -6 -3418 66 -30 31 -34 41 -37 104 -5 83 0 92 128 255 48 61 115 151
148 200 33 50 80 113 104 142 24 28 67 81 96 118 49 61 94 92 172 118 8 3
1267 6 2796 6 2544 1 2786 0 2832 -15z"/>
<path d="M3345 7259 c-132 -5 -330 -13 -440 -19 -110 -6 -290 -15 -400 -21
-239 -11 -378 -30 -435 -59 -51 -26 -171 -143 -194 -190 -36 -72 -47 -136 -56
-335 -5 -110 -13 -281 -19 -380 -27 -487 -19 -2164 12 -2420 22 -179 89 -262
247 -306 35 -10 202 -12 745 -8 385 2 1425 2 2311 1 1232 -3 1626 -1 1670 8
106 22 173 70 227 163 25 42 28 60 37 199 13 204 32 1089 31 1408 -1 328 -17
1004 -32 1325 -12 286 -21 324 -94 417 -104 133 -197 159 -625 178 -118 5
-303 14 -410 19 -562 30 -1970 40 -2575 20z m1895 -129 c411 -12 959 -36 980
-44 8 -3 98 -10 200 -16 294 -16 384 -40 455 -122 46 -54 51 -77 74 -303 59
-577 62 -1917 5 -2650 -23 -309 -38 -352 -139 -400 l-56 -26 -2320 -3 -2321
-3 -47 22 c-95 44 -132 123 -149 315 -61 680 -40 2534 33 2917 12 64 22 86 59
132 72 92 138 116 341 126 72 3 175 10 230 15 439 41 1849 62 2655 40z"/>
<path d="M2599 6147 c-39 -26 -122 -125 -150 -179 -37 -73 -13 -138 52 -138
47 0 61 12 135 115 109 151 108 149 90 183 -25 49 -73 56 -127 19z"/>
<path d="M6196 6129 c-43 -34 -36 -78 24 -150 28 -33 65 -84 84 -113 42 -66
78 -84 129 -62 29 12 37 21 42 50 9 46 -17 100 -91 189 -85 105 -135 127 -188
86z"/>
<path d="M3050 5870 c-41 -4 -100 -18 -130 -30 -30 -12 -64 -24 -75 -28 -33
-9 -116 -62 -172 -109 -118 -99 -221 -270 -243 -405 -8 -44 -11 -122 -8 -198
8 -201 60 -324 195 -463 159 -164 303 -226 523 -226 136 0 201 13 306 65 64
31 98 58 180 139 84 84 107 114 142 185 48 99 82 239 82 339 0 209 -80 392
-241 551 -81 80 -159 126 -274 163 -62 19 -187 27 -285 17z m300 -141 c186
-99 222 -326 73 -471 -57 -55 -124 -82 -208 -82 -120 0 -214 60 -270 171 -25
48 -29 69 -29 128 1 130 73 225 209 277 11 4 56 6 100 4 61 -2 91 -9 125 -27z
m-463 -790 c47 -17 69 -112 37 -157 -19 -28 -65 -52 -100 -52 -31 0 -90 54
-99 92 -10 38 28 106 68 123 31 13 45 13 94 -6z m603 -1 c38 -26 53 -67 44
-118 -16 -96 -137 -120 -194 -40 -39 54 -16 140 43 165 45 20 69 18 107 -7z"/>
<path d="M5680 5871 c-113 -11 -230 -60 -335 -139 -96 -73 -162 -149 -219
-252 -63 -116 -67 -137 -68 -331 0 -175 0 -176 33 -260 44 -112 72 -156 155
-240 176 -181 306 -240 529 -242 221 -1 360 64 536 250 117 124 189 312 189
491 -1 184 -86 377 -232 523 -65 65 -165 139 -188 139 -7 0 -24 6 -38 14 -83
44 -213 61 -362 47z m295 -141 c145 -84 202 -236 141 -372 -68 -154 -245 -225
-394 -159 -70 31 -142 112 -165 184 -21 67 -21 96 -1 169 26 91 100 165 204
202 8 3 51 4 95 2 61 -2 89 -8 120 -26z m-464 -784 c44 -18 67 -44 75 -84 14
-67 -41 -132 -111 -132 -30 0 -44 7 -71 36 -56 59 -44 130 30 175 37 23 35 23
77 5z m614 0 c36 -15 65 -59 65 -99 0 -105 -105 -154 -176 -83 -28 28 -34 41
-34 78 0 51 21 85 64 104 39 17 40 17 81 0z"/>
<path d="M4132 4635 c-41 -34 -53 -93 -40 -193 12 -91 32 -133 88 -188 91 -91
220 -129 347 -105 105 21 138 38 202 106 73 79 91 127 91 248 l0 90 -36 33
c-44 42 -89 45 -128 9 -36 -34 -46 -65 -46 -150 0 -68 -2 -76 -29 -103 -56
-56 -156 -65 -228 -21 -39 24 -44 40 -52 153 -6 83 -8 90 -39 117 -42 37 -89
39 -130 4z"/>
</g>
</svg>
