<?xml version="1.0" standalone="no"?>
<!DOCTYPE svg PUBLIC "-//W3C//DTD SVG 20010904//EN"
 "http://www.w3.org/TR/2001/REC-SVG-20010904/DTD/svg10.dtd">
<svg version="1.0" xmlns="http://www.w3.org/2000/svg"
 width="320.000000pt" height="320.000000pt" viewBox="0 0 320.000000 320.000000"
 preserveAspectRatio="xMidYMid meet">

<g transform="translate(0.000000,320.000000) scale(0.100000,-0.100000)"
fill="#000000" stroke="none">
<path d="M1175 2824 c-351 -8 -637 -24 -668 -38 -57 -23 -104 -89 -116 -159
-19 -117 -34 -644 -29 -1080 5 -470 5 -471 64 -531 55 -54 66 -56 407 -56
l316 0 -12 -33 c-7 -18 -34 -67 -61 -110 l-48 -77 -232 0 c-210 0 -234 -2
-262 -19 -18 -11 -40 -31 -50 -45 -11 -15 -38 -51 -60 -81 -70 -92 -111 -159
-118 -191 -10 -44 15 -99 56 -124 33 -20 47 -20 1231 -20 1316 0 1243 -3 1280
59 25 43 22 99 -10 146 -50 76 -161 220 -188 245 l-27 25 -249 3 -250 3 -33
52 c-32 50 -86 151 -86 161 0 3 146 7 324 8 l324 3 39 31 c21 17 49 51 63 75
l25 44 0 580 c-1 606 -14 919 -42 985 -18 45 -59 88 -101 106 -23 9 -107 17
-250 24 -235 10 -1010 19 -1237 14z m1125 -75 c335 -12 358 -16 392 -74 31
-55 42 -287 42 -942 1 -603 1 -612 -20 -639 -11 -15 -33 -37 -48 -48 -27 -21
-34 -21 -1080 -23 -1014 -1 -1055 -1 -1084 17 -17 11 -39 34 -49 52 -17 31
-18 75 -17 673 0 689 8 869 41 914 40 54 67 59 348 69 380 13 1125 14 1475 1z
m-431 -1825 c14 -59 29 -72 94 -77 24 -2 40 -13 64 -46 18 -23 33 -47 33 -52
0 -5 -192 -9 -475 -9 -261 0 -475 2 -475 4 0 2 24 45 54 95 30 50 57 103 60
116 l6 25 314 0 313 0 12 -56z m751 -254 c23 -12 186 -229 200 -266 14 -36 -9
-71 -52 -79 -18 -3 -559 -4 -1201 -3 -1144 3 -1169 3 -1183 22 -28 38 -16 68
76 191 49 66 99 126 112 132 30 16 2018 19 2048 3z"/>
<path d="M1135 2583 c-44 -2 -147 -7 -228 -12 -173 -12 -202 -23 -239 -99
l-23 -47 0 -545 0 -545 23 -32 c12 -17 37 -36 55 -41 20 -6 353 -9 867 -8 663
1 840 4 861 15 14 7 34 27 45 44 18 31 19 58 19 582 0 492 -2 553 -17 580 -27
51 -61 74 -119 85 -128 22 -880 36 -1244 23z m1143 -62 c123 -12 168 -28 183
-68 16 -41 29 -297 29 -563 -1 -239 -13 -533 -25 -571 -16 -50 -5 -49 -894
-49 l-829 0 -25 30 c-35 41 -42 129 -40 565 1 383 12 562 39 602 26 40 69 51
249 61 208 12 1157 7 1313 -7z"/>
<path d="M904 2164 c-35 -36 -44 -78 -21 -87 18 -7 25 -1 65 51 27 35 31 46
22 57 -18 22 -29 19 -66 -21z"/>
<path d="M2207 2183 c-13 -12 -7 -33 21 -72 32 -47 50 -57 70 -38 17 17 5 45
-36 90 -26 27 -42 33 -55 20z"/>
<path d="M1032 2077 c-43 -13 -118 -80 -141 -126 -83 -163 27 -362 208 -378
80 -7 136 14 195 74 58 58 80 122 74 207 -12 141 -113 237 -246 235 -31 -1
-72 -6 -90 -12z m189 -56 c55 -56 26 -159 -50 -176 -61 -13 -131 43 -131 105
0 28 26 77 47 89 10 6 37 11 61 11 35 0 49 -6 73 -29z m-187 -267 c29 -28 13
-68 -24 -62 -36 5 -48 33 -26 57 23 25 30 26 50 5z m216 2 c6 -8 10 -25 8 -38
-2 -18 -9 -23 -32 -23 -40 0 -56 27 -32 54 22 25 39 26 56 7z"/>
<path d="M1942 2064 c-115 -57 -168 -187 -130 -318 16 -55 109 -148 164 -164
51 -15 107 -15 159 -1 54 15 149 110 164 164 36 131 -11 252 -123 316 -70 39
-158 41 -234 3z m210 -43 c87 -77 -9 -216 -115 -166 -21 10 -42 30 -51 50 -49
103 80 193 166 116z m-181 -261 c26 -14 25 -56 -2 -70 -16 -9 -25 -8 -40 6
-23 21 -24 32 -2 56 19 21 19 21 44 8z m226 -17 c13 -19 12 -24 -6 -42 -17
-17 -25 -19 -41 -11 -25 13 -26 55 -2 69 22 13 32 10 49 -16z"/>
<path d="M1466 1644 c-3 -9 -6 -34 -6 -56 0 -34 6 -46 36 -74 31 -30 42 -34
90 -34 47 0 59 4 90 33 57 52 59 147 3 147 -23 0 -39 -29 -39 -70 0 -24 -6
-33 -26 -40 -35 -14 -41 -13 -64 10 -12 12 -20 33 -20 54 0 22 -6 36 -16 40
-26 10 -42 7 -48 -10z"/>
</g>
</svg>
