<?xml version="1.0" standalone="no"?>
<!DOCTYPE svg PUBLIC "-//W3C//DTD SVG 20010904//EN"
 "http://www.w3.org/TR/2001/REC-SVG-20010904/DTD/svg10.dtd">
<svg version="1.0" xmlns="http://www.w3.org/2000/svg"
 width="320.000000pt" height="320.000000pt" viewBox="0 0 320.000000 320.000000"
 preserveAspectRatio="xMidYMid meet">

<g transform="translate(0.000000,320.000000) scale(0.100000,-0.100000)"
fill="#000000" stroke="none">
<path d="M627 2636 c-50 -18 -76 -42 -98 -91 -17 -37 -19 -78 -19 -605 l0
-565 -91 -59 c-149 -97 -151 -119 -33 -317 48 -79 100 -168 118 -197 44 -76
77 -103 128 -109 40 -4 53 2 198 91 85 53 159 96 163 96 9 0 0 -11 -88 -115
-36 -43 -40 -54 -43 -115 -4 -63 -2 -69 26 -101 l30 -34 654 -3 c359 -2 672 0
695 3 25 4 51 16 67 32 23 22 26 34 26 90 0 75 -16 111 -97 223 l-55 75 209 5
c231 6 249 10 280 73 8 18 34 46 57 62 49 36 70 89 60 150 -5 31 -18 51 -55
86 l-49 47 0 589 0 590 -23 33 c-12 19 -38 43 -57 54 -35 21 -47 21 -1000 23
-796 2 -972 0 -1003 -11z m1984 -46 c10 -6 28 -28 39 -50 19 -38 20 -59 20
-613 l0 -575 -32 -13 c-35 -14 -57 -36 -58 -56 0 -9 9 -8 35 3 71 29 118 10
145 -61 15 -39 5 -73 -32 -108 -26 -26 -36 -29 -74 -24 -26 2 -58 15 -78 31
-40 30 -46 32 -46 11 0 -22 57 -82 85 -89 31 -8 32 -17 3 -36 -19 -12 -126
-14 -653 -17 -346 -2 -645 -1 -663 3 -26 5 -31 10 -26 23 4 9 9 36 12 61 3 41
1 46 -26 63 -33 18 -138 25 -127 7 3 -5 21 -10 40 -10 19 0 46 -5 61 -10 23
-9 26 -14 20 -43 -9 -46 -44 -77 -90 -80 l-39 -2 -12 50 c-6 28 -23 71 -38 96
-15 25 -27 48 -27 52 0 3 321 3 714 1 l714 -5 21 47 c20 45 21 61 21 628 l0
581 -910 0 c-500 0 -910 -2 -910 -5 -6 -72 -6 -260 0 -260 12 0 21 -93 10
-104 -12 -12 -13 -187 -1 -239 5 -21 5 -39 0 -43 -13 -7 -9 -234 4 -255 13
-20 1 -33 -94 -99 l-57 -39 -5 37 c-9 61 -7 1003 2 1052 6 30 19 53 40 72 l31
28 981 0 c656 0 987 -3 1000 -10z m-1001 -191 c107 0 186 -4 175 -8 -13 -5 21
-10 90 -14 148 -8 170 -12 242 -36 34 -12 69 -21 78 -21 8 0 15 -6 15 -13 0
-8 6 -14 13 -15 39 -4 74 -17 85 -34 15 -20 52 -25 52 -5 1 7 6 5 14 -5 7 -10
14 -49 15 -90 1 -40 6 -149 11 -243 15 -271 13 -500 -5 -535 -22 -42 -74 -78
-131 -90 -69 -15 -440 -26 -879 -25 l-369 0 -68 115 c-77 132 -104 160 -154
160 l-34 0 0 413 c0 226 3 423 7 436 l6 24 321 -6 c177 -4 409 -7 516 -8z
m-783 -922 c15 -11 83 -131 83 -146 0 -6 -7 -11 -15 -11 -8 0 -15 4 -15 8 0 5
-18 37 -40 70 -42 66 -73 80 -101 46 -12 -15 -11 -16 10 -9 16 5 21 4 17 -4
-4 -6 -11 -11 -17 -11 -14 0 -320 -198 -348 -225 l-24 -23 75 -129 c42 -70 83
-130 92 -131 10 -2 45 14 79 36 34 21 107 67 162 102 55 34 111 72 125 84 l25
21 -25 -28 c-20 -23 -186 -136 -269 -182 -11 -6 -27 -17 -36 -25 -9 -8 -25
-15 -36 -17 -10 -1 -22 -3 -26 -4 -31 -5 -51 4 -62 29 -7 15 -41 73 -77 128
-35 56 -64 111 -64 123 0 12 12 34 28 48 29 27 377 256 402 265 16 6 38 0 57
-15z m-33 -201 c31 -52 56 -103 56 -113 0 -11 -24 -33 -66 -58 -36 -22 -100
-61 -142 -87 -42 -26 -80 -47 -83 -48 -4 0 -35 44 -70 97 l-62 96 29 24 c16
13 47 34 69 47 22 13 79 49 125 80 47 31 86 56 87 56 1 0 27 -42 57 -94z m153
-213 c6 -18 -51 -45 -65 -31 -9 9 -7 16 5 30 18 20 54 21 60 1z m-81 -45 c9
-14 -23 -38 -53 -38 -29 0 -30 24 0 38 29 14 44 14 53 0z m104 -26 c0 -22 -48
-48 -63 -33 -12 12 -1 30 27 41 31 13 36 12 36 -8z m-80 -56 c0 -18 -50 -40
-63 -27 -12 12 -1 30 27 41 24 9 36 4 36 -14z m226 3 c3 -6 -11 -30 -33 -52
-76 -81 -134 -157 -128 -167 4 -7 221 -10 634 -10 l628 0 -5 -25 c-3 -17 -13
-28 -31 -33 -47 -13 -977 -8 -1075 6 -64 10 -92 10 -100 2 -16 -16 7 -46 34
-42 13 1 20 -3 18 -10 -5 -14 -19 -21 -70 -37 -31 -10 -41 -9 -63 5 -23 15
-25 22 -25 91 l0 75 52 62 c115 136 147 162 164 135z m131 -16 c-20 -2 -52 -2
-70 0 -17 2 0 4 38 4 39 0 53 -2 32 -4z m240 1 c-3 -3 -12 -4 -19 -1 -8 3 -5
6 6 6 11 1 17 -2 13 -5z m-822 -14 c3 -5 20 -7 37 -3 28 6 30 4 23 -13 -5 -10
-9 -30 -9 -44 0 -31 -14 -42 -37 -29 -11 6 -27 5 -44 -1 -20 -8 -27 -7 -32 6
-3 8 2 21 12 28 12 9 16 19 11 31 -9 25 25 48 39 25z m600 -25 c0 -6 -34 -11
-77 -13 -71 -3 -100 7 -65 22 21 9 142 1 142 -9z m375 0 c0 -13 -26 -15 -175
-15 -160 0 -188 4 -168 23 3 4 82 7 175 7 143 0 168 -2 168 -15z m150 0 c0
-12 -13 -15 -60 -15 -47 0 -60 3 -60 15 0 12 13 15 60 15 47 0 60 -3 60 -15z
m148 -2 c3 -10 -14 -13 -62 -13 -53 0 -66 3 -66 15 0 13 11 15 62 13 38 -2 63
-8 66 -15z m200 0 c3 -10 -19 -13 -87 -13 -75 0 -91 3 -91 15 0 13 14 15 87
13 58 -2 88 -7 91 -15z m-900 -40 c3 -10 -18 -13 -82 -13 -73 0 -84 2 -79 15
4 13 20 15 81 13 49 -2 77 -7 80 -15z m140 7 c12 0 22 -4 22 -10 0 -6 -30 -10
-70 -10 -38 0 -70 4 -70 9 0 15 22 21 60 16 19 -3 45 -5 58 -5z m255 3 c9 -2
15 -9 12 -14 -8 -12 -225 -12 -225 0 0 5 6 12 13 14 15 7 176 6 200 0z m151 1
c35 -13 13 -24 -49 -24 -51 0 -65 3 -65 15 0 11 12 15 49 15 27 0 56 -3 65 -6z
m150 0 c35 -13 13 -24 -49 -24 -51 0 -65 3 -65 15 0 11 12 15 49 15 27 0 56
-3 65 -6z m219 -3 c9 -1 17 -5 17 -11 0 -6 -40 -10 -100 -10 -81 0 -100 3
-100 15 0 14 26 15 183 6z m-925 -53 c-5 -15 -208 -24 -208 -10 0 19 17 22
113 22 74 0 98 -3 95 -12z m412 -3 c0 -13 -28 -15 -195 -15 -167 0 -195 2
-195 15 0 13 28 15 195 15 167 0 195 -2 195 -15z m160 0 c0 -13 -12 -15 -67
-13 -42 2 -68 8 -71 16 -3 9 15 12 67 12 57 0 71 -3 71 -15z m168 -2 c3 -10
-16 -13 -72 -13 -62 0 -76 3 -76 15 0 13 12 15 72 13 46 -2 73 -7 76 -15z
m232 2 c0 -12 -18 -15 -105 -15 -87 0 -105 3 -105 15 0 12 18 15 105 15 87 0
105 -3 105 -15z m-240 -50 c0 -13 -61 -15 -490 -15 -269 0 -490 4 -490 8 0 5
3 12 7 15 3 4 224 7 490 7 423 0 483 -2 483 -15z m268 -2 c3 -10 -26 -13 -122
-13 -106 0 -126 2 -126 15 0 13 18 15 122 13 86 -2 123 -7 126 -15z"/>
<path d="M1962 1154 c-15 -10 -22 -25 -22 -49 0 -63 55 -87 92 -40 11 14 24
23 29 20 18 -12 9 45 -11 65 -24 24 -57 26 -88 4z"/>
<path d="M1429 1146 c-33 -16 -39 -70 -9 -86 32 -17 63 -8 80 22 26 47 -21 89
-71 64z m38 -32 c8 -21 -13 -42 -28 -27 -13 13 -5 43 11 43 6 0 13 -7 17 -16z"/>
<path d="M1740 1147 c-31 -15 -37 -52 -14 -78 23 -25 59 -24 78 3 21 30 20 44
-4 68 -23 23 -27 24 -60 7z m37 -33 c8 -20 -8 -36 -26 -25 -15 10 -8 41 9 41
6 0 13 -7 17 -16z"/>
<path d="M2247 1134 c-15 -16 -5 -19 48 -16 l55 4 0 -31 c0 -18 -7 -34 -17
-41 -16 -9 -15 -10 7 -8 23 3 25 7 25 48 l0 45 -55 3 c-31 2 -59 0 -63 -4z"/>
<path d="M1560 1110 c-16 -30 4 -60 40 -60 55 0 71 19 54 64 -9 25 -80 22 -94
-4z"/>
<path d="M1130 2036 c-65 -48 -94 -82 -86 -102 5 -12 14 -15 37 -10 40 8 145
71 153 92 8 21 8 20 -10 38 -23 23 -44 19 -94 -18z"/>
<path d="M2000 2050 c-16 -31 2 -55 74 -95 92 -51 135 -45 100 14 -19 33 -117
101 -145 101 -10 0 -23 -9 -29 -20z"/>
<path d="M1150 1818 c-55 -37 -80 -82 -80 -144 0 -64 15 -101 44 -108 12 -3
35 -19 52 -35 25 -26 37 -30 80 -31 87 0 150 57 160 145 8 68 -12 121 -59 159
-31 25 -49 31 -100 34 -53 3 -67 0 -97 -20z m93 -9 c26 -12 47 -47 47 -78 0
-10 -11 -30 -25 -45 -32 -35 -86 -36 -120 -1 -66 66 11 164 98 124z m95 -236
c-2 -10 -10 -18 -18 -18 -8 0 -16 8 -18 18 -2 12 3 17 18 17 15 0 20 -5 18
-17z"/>
<path d="M1903 1815 c-107 -64 -109 -223 -3 -290 56 -36 141 -36 164 0 9 13
16 33 16 45 0 24 27 27 32 3 3 -16 5 -16 25 4 33 33 39 101 15 156 -44 100
-157 137 -249 82z m142 -20 c54 -53 18 -135 -60 -135 -67 0 -109 53 -85 110
22 53 103 68 145 25z"/>
<path d="M1591 1596 c-34 -36 -69 -39 -99 -7 l-25 26 6 -76 c9 -128 53 -184
143 -184 48 0 57 4 89 35 37 37 55 100 55 184 l-1 41 -18 -22 c-26 -31 -68
-30 -101 2 l-26 25 -23 -24z m74 -110 c40 -17 43 -31 14 -65 -28 -34 -104 -35
-131 -2 -28 35 -23 59 15 70 46 13 63 13 102 -3z"/>
</g>
</svg>
