<?xml version="1.0" standalone="no"?>
<!DOCTYPE svg PUBLIC "-//W3C//DTD SVG 20010904//EN"
 "http://www.w3.org/TR/2001/REC-SVG-20010904/DTD/svg10.dtd">
<svg version="1.0" xmlns="http://www.w3.org/2000/svg"
 width="300.000000pt" height="300.000000pt" viewBox="0 0 300.000000 300.000000"
 preserveAspectRatio="xMidYMid meet">
<metadata>
Created by potrace 1.10, written by Peter Selinger 2001-2011
</metadata>
<g transform="translate(0.000000,300.000000) scale(0.100000,-0.100000)"
fill="#000000" stroke="none">
<path d="M575 2466 c-37 -16 -70 -52 -84 -89 -7 -19 -11 -207 -11 -558 l0
-529 -85 -55 c-85 -55 -115 -91 -115 -137 0 -26 207 -380 244 -416 13 -14 40
-26 64 -29 36 -5 51 0 124 43 46 26 110 65 142 86 33 21 67 38 76 38 9 0 31
16 50 35 19 19 40 35 46 35 30 0 21 -23 -36 -86 -86 -95 -102 -118 -88 -132 9
-9 167 -12 595 -12 l582 0 -8 -22 c-6 -18 -19 -24 -57 -30 -52 -7 -851 -11
-862 -4 -4 2 -38 5 -77 7 -38 2 -77 7 -86 13 -22 13 -51 0 -47 -21 2 -11 14
-19 31 -21 43 -5 27 -25 -32 -40 -46 -11 -56 -11 -77 3 -21 14 -24 23 -24 81
0 65 1 67 51 125 28 33 47 59 42 58 -18 -1 -112 -126 -123 -166 -16 -53 -6
-104 26 -134 l26 -24 626 -3 c420 -2 639 0 663 8 50 14 74 63 64 128 -9 57
-23 86 -92 185 l-54 77 181 0 c198 0 233 7 266 55 11 15 36 44 58 64 21 20 44
48 52 63 31 59 5 146 -53 180 l-33 20 0 558 0 557 -23 34 c-49 73 13 69 -1002
69 -736 -1 -916 -3 -940 -14z m1882 -48 c43 -48 43 -46 43 -608 0 -506 -1
-541 -17 -547 -26 -9 -63 -44 -63 -59 0 -10 7 -10 35 2 47 19 70 18 100 -9 35
-29 44 -93 20 -131 -10 -14 -34 -31 -55 -37 -39 -12 -56 -7 -117 31 -12 8 -25
11 -29 7 -12 -11 29 -60 70 -83 35 -20 36 -21 18 -37 -17 -16 -74 -17 -646
-17 -594 0 -628 1 -621 18 4 9 9 35 12 58 5 36 2 44 -22 62 -20 16 -42 22 -76
22 -27 0 -49 -4 -49 -10 0 -5 15 -10 34 -10 76 0 103 -30 75 -82 -11 -21 -66
-48 -99 -48 -15 0 -20 7 -20 29 0 16 -15 59 -34 95 l-34 66 675 2 675 3 14 40
c11 32 14 145 14 585 l0 545 -845 -3 -845 -2 0 -438 0 -437 -73 -53 -72 -53
-3 513 c-2 545 -2 551 46 588 24 20 45 20 947 20 l922 0 20 -22z m-724 -169
c180 -1 327 -4 327 -9 0 -4 11 -5 24 -3 33 7 122 -41 140 -75 16 -31 35 -359
38 -662 2 -191 -4 -216 -58 -259 -59 -47 -175 -55 -779 -56 l-469 0 -54 85
c-29 47 -57 95 -62 107 -16 40 -48 63 -85 63 l-35 0 0 411 0 412 343 -7 c188
-3 489 -7 670 -7z m-944 -878 c12 -16 21 -32 21 -35 0 -4 11 -24 25 -47 14
-22 23 -44 19 -50 -9 -15 -32 8 -55 53 -11 21 -29 48 -39 58 -38 38 -39 19 -2
-39 20 -33 54 -86 75 -119 23 -38 37 -72 37 -93 l0 -32 -24 44 c-44 83 -122
203 -139 213 -12 8 -37 -4 -114 -56 -54 -36 -128 -84 -165 -107 -41 -26 -68
-50 -68 -60 0 -21 124 -232 144 -245 11 -7 34 3 85 37 39 26 73 47 76 47 3 0
42 24 88 53 45 29 89 57 97 61 38 20 -86 -73 -159 -119 -9 -5 -16 -17 -16 -25
0 -9 -12 -15 -34 -17 -41 -4 -81 -27 -81 -49 0 -8 -4 -12 -10 -9 -10 6 -14
-13 -11 -47 4 -37 -17 -23 -57 40 -99 153 -162 261 -162 279 1 29 19 45 140
124 63 41 146 95 185 121 83 56 115 60 144 19z m-41 -183 c29 -50 51 -96 49
-102 -6 -15 -238 -163 -262 -168 -19 -3 -57 44 -112 141 l-23 39 73 45 c39 25
103 66 142 91 38 25 72 46 75 46 3 0 29 -41 58 -92z m142 -188 c0 -5 -11 -17
-26 -26 -31 -21 -56 -5 -34 21 14 17 60 21 60 5z m-98 -70 c-23 -19 -56 -17
-49 4 6 19 50 37 62 25 7 -7 3 -16 -13 -29z m118 -3 c0 -18 -43 -37 -60 -27
-11 7 -11 11 -1 24 16 19 61 21 61 3z m-80 -51 c0 -14 -21 -26 -46 -26 -17 0
-19 26 -1 33 24 10 47 7 47 -7z m338 -13 c-15 -2 -42 -2 -60 0 -18 2 -6 4 27
4 33 0 48 -2 33 -4z m-543 -13 c4 -7 13 -7 26 0 15 9 21 7 25 -5 4 -8 1 -21
-5 -29 -6 -7 -8 -16 -5 -19 4 -3 4 -13 0 -22 -4 -13 -10 -14 -26 -5 -14 8 -26
8 -41 -1 -31 -16 -48 4 -25 30 10 11 16 27 13 35 -9 24 24 38 38 16z m565 -19
c0 -12 -85 -24 -121 -16 -16 4 -27 11 -23 16 7 12 144 12 144 0z m347 -3 c-5
-18 -319 -18 -325 0 -3 9 34 12 163 12 129 0 166 -3 162 -12z m143 2 c0 -6
-27 -10 -60 -10 -33 0 -60 4 -60 10 0 6 27 10 60 10 33 0 60 -4 60 -10z m135
0 c7 -11 5 -11 -40 -15 -38 -3 -75 5 -75 16 0 12 107 11 115 -1z m190 0 c4 -6
-25 -10 -79 -10 -51 0 -86 4 -86 10 0 6 33 10 79 10 44 0 83 -4 86 -10z m25
-41 c0 -5 -40 -9 -90 -9 -65 0 -90 3 -90 13 0 9 23 11 90 9 49 -2 90 -8 90
-13z m-865 1 c-3 -5 -42 -10 -86 -10 -51 0 -78 4 -74 10 3 6 42 10 86 10 51 0
78 -4 74 -10z m145 0 c0 -6 -29 -10 -66 -10 -41 0 -63 4 -59 10 3 6 33 10 66
10 33 0 59 -4 59 -10z m230 0 c0 -6 -42 -10 -106 -10 -67 0 -103 4 -99 10 3 6
50 10 106 10 59 0 99 -4 99 -10z m140 0 c0 -6 -27 -10 -60 -10 -33 0 -60 4
-60 10 0 6 27 10 60 10 33 0 60 -4 60 -10z m145 0 c4 -6 -18 -10 -59 -10 -37
0 -66 4 -66 10 0 6 26 10 59 10 33 0 63 -4 66 -10z m-677 -42 c-5 -15 -188
-24 -188 -10 0 18 16 22 103 22 66 0 88 -3 85 -12z m392 -3 c0 -13 -27 -15
-185 -15 -158 0 -185 2 -185 15 0 13 27 15 185 15 158 0 185 -2 185 -15z m150
0 c0 -12 -14 -15 -65 -15 -51 0 -65 3 -65 15 0 12 14 15 65 15 51 0 65 -3 65
-15z m150 0 c0 -12 -14 -15 -65 -15 -51 0 -65 3 -65 15 0 12 14 15 65 15 51 0
65 -3 65 -15z m220 0 c0 -13 -15 -15 -97 -13 -66 2 -98 7 -101 16 -3 9 21 12
97 12 84 0 101 -3 101 -15z m-222 -47 c-4 -10 -107 -14 -461 -16 -251 -1 -457
2 -457 6 0 5 3 12 7 15 3 4 211 7 461 7 358 0 453 -3 450 -12z m242 -3 c0 -16
-222 -13 -228 3 -3 10 21 12 112 10 69 -2 116 -7 116 -13z"/>
<path d="M1847 1083 c-21 -10 -27 -21 -27 -46 0 -61 44 -75 94 -31 25 22 28
30 20 52 -11 33 -51 44 -87 25z"/>
<path d="M1322 1068 c-35 -35 14 -102 57 -78 33 17 42 44 25 68 -17 24 -62 30
-82 10z m55 -24 c7 -18 -17 -38 -31 -24 -11 11 -1 40 14 40 6 0 13 -7 17 -16z"/>
<path d="M1616 1064 c-19 -19 -20 -35 -3 -56 23 -30 70 -27 85 6 22 49 -43 89
-82 50z m52 -27 c2 -10 -3 -17 -12 -17 -18 0 -29 16 -21 31 9 14 29 6 33 -14z"/>
<path d="M2105 1060 c-4 -6 13 -10 49 -10 52 0 56 -2 56 -23 0 -13 -5 -28 -12
-35 -9 -9 -8 -12 6 -12 14 0 17 7 14 43 l-3 42 -52 3 c-28 2 -54 -2 -58 -8z"/>
<path d="M1467 1054 c-4 -4 -7 -20 -7 -36 0 -27 2 -28 45 -28 49 0 67 18 48
49 -10 17 -73 27 -86 15z"/>
<path d="M1053 1904 c-57 -43 -73 -62 -73 -86 0 -28 36 -22 107 19 65 39 83
64 63 88 -19 23 -45 18 -97 -21z"/>
<path d="M1882 1931 c-29 -18 -8 -55 48 -89 64 -38 97 -49 112 -34 19 19 -3
52 -62 92 -61 41 -75 46 -98 31z"/>
<path d="M1095 1716 c-103 -46 -132 -206 -45 -251 17 -9 41 -26 53 -38 30 -30
100 -29 150 2 73 45 90 180 30 244 -51 54 -125 71 -188 43z m63 -17 c34 -12
58 -56 47 -88 -11 -36 -34 -51 -80 -51 -48 0 -75 24 -75 66 0 45 13 59 76 84
1 0 15 -5 32 -11z m100 -226 c-2 -10 -10 -18 -18 -18 -8 0 -16 8 -18 18 -2 12
3 17 18 17 15 0 20 -5 18 -17z"/>
<path d="M1795 1707 c-110 -62 -116 -204 -12 -281 38 -28 130 -29 151 -1 9 11
16 30 16 43 0 13 6 22 15 22 8 0 15 -4 15 -10 0 -5 6 -10 13 -10 35 0 50 117
21 171 -21 41 -99 89 -143 89 -20 0 -54 -10 -76 -23z m104 -12 c44 -22 55 -71
25 -113 -12 -17 -25 -22 -63 -22 -53 0 -75 16 -86 62 -6 22 -1 33 23 58 34 33
59 37 101 15z"/>
<path d="M1487 1494 c-33 -28 -63 -31 -90 -6 -20 17 -20 16 -14 -55 9 -117 47
-163 131 -163 84 0 136 74 136 195 0 36 -16 47 -26 20 -10 -24 -60 -18 -86 9
l-23 25 -28 -25z m66 -95 c41 -11 47 -30 21 -67 -20 -28 -93 -31 -116 -4 -34
39 -28 64 17 75 32 8 38 7 78 -4z"/>
</g>
</svg>
