<svg xmlns="http://www.w3.org/2000/svg" xmlns:vectornator="http://vectornator.io" xml:space="preserve" stroke-miterlimit="10" style="fill-rule:nonzero;clip-rule:evenodd;stroke-linecap:round;stroke-linejoin:round" viewBox="0 0 485 267">
  <g vectornator:layerName="ch">
    <path vectornator:layerName="Curve 2" fill="none" stroke="#000" stroke-width="7.4" d="M132 107c0-24-6-77-46-41-99 93-21 262 46 122h0c59-89 76-164 66-162-25 3-58 102-58 212l1-10c0-15 15-76 47-88 38-11-2 63 9 81 10 15 24-5 27-13"/>
  </g>
  <g vectornator:layerName="a1">
    <path vectornator:layerName="Curve 3" fill="none" stroke="#000" stroke-width="7.4" d="M291 146c-15-35-64 27-67 62-1 9 0 17 5 22 28 32 70-65 62-84Z"/>
  </g>
  <g vectornator:layerName="a2">
    <path vectornator:layerName="Curve 5" fill="none" stroke="#000" stroke-width="7.4" d="M299 139c-4 14-40 104-8 88 0 0 20-25 24-39"/>
  </g>
  <g vectornator:layerName="d1">
    <path vectornator:layerName="Curve 4" fill="none" stroke="#000" stroke-width="7.4" d="M379 143c-35-31-85 59-63 83 28 32 73-74 63-83Z"/>
  </g>
  <g vectornator:layerName="d2">
    <path vectornator:layerName="Curve 6" fill="none" stroke="#000" stroke-width="7.4" d="M351 216c8-12 117-152 91-166-15-8-97 129-63 190"/>
  </g>
</svg>